<?xml version="1.0" standalone="no"?><!DOCTYPE svg PUBLIC "-//W3C//DTD SVG 1.1//EN" "http://www.w3.org/Graphics/SVG/1.1/DTD/svg11.dtd"><svg t="1748595808986" class="icon" viewBox="0 0 1030 1024" version="1.1" xmlns="http://www.w3.org/2000/svg" p-id="4648" xmlns:xlink="http://www.w3.org/1999/xlink" width="16.09375" height="16"><path d="M1015.526755 511.117903a511.156255 511.156255 0 0 1-50.27955 222.441947c-8.015581 18.025468 21.362097 108.766442 37.124794 157.51191 26.156105 80.731086 33.903221 107.078951 21.899026 122.726592a27.153258 27.153258 0 0 1-23.011236 10.124944 363.845993 363.845993 0 0 1-94.614532-28.30382 561.090637 561.090637 0 0 0-139.333033-40.231311 21.78397 21.78397 0 0 0-9.664719 1.380674 500.417678 500.417678 0 0 1-246.795506 65.198502 510.734382 510.734382 0 0 1 0-1021.545468 508.27985 508.27985 0 0 1 504.674756 510.69603zM519.366156 183.399551a328.523745 328.523745 0 1 0 324.573483 328.523745 326.989663 326.989663 0 0 0-324.573483-328.523745z m0 603.354606a274.830861 274.830861 0 1 1 271.532585-274.830861 273.488539 273.488539 0 0 1-271.532585 274.715805z m0-424.787415a149.918202 149.918202 0 1 0 148.115656 149.956554 149.189513 149.189513 0 0 0-148.115656-149.956554z m0 238.166292a88.209738 88.209738 0 1 1 87.174232-88.209738 87.787865 87.787865 0 0 1-87.174232 88.209738z" fill="#4AB7ED" p-id="4649"></path></svg>