<?xml version="1.0" standalone="no"?><!DOCTYPE svg PUBLIC "-//W3C//DTD SVG 1.1//EN" "http://www.w3.org/Graphics/SVG/1.1/DTD/svg11.dtd"><svg t="1748595932797" class="icon" viewBox="0 0 1024 1024" version="1.1" xmlns="http://www.w3.org/2000/svg" p-id="10185" xmlns:xlink="http://www.w3.org/1999/xlink" width="16" height="16"><path d="M511.884661 0.072437A426.495448 426.495448 0 0 0 77.773223 434.183875c0 159.258816 130.318054 347.28915 405.170676 578.81525 14.385759 14.555003 43.495766 14.555003 72.436528 0 260.466863-231.5261 390.784916-419.725679 390.784916-578.81525A426.495448 426.495448 0 0 0 511.884661 0.072437z" fill="#39B242" p-id="10186"></path><path d="M513.069371 440.276667m-335.272811 0a335.27281 335.27281 0 1 0 670.545621 0 335.27281 335.27281 0 1 0-670.545621 0Z" fill="#FFFFFF" p-id="10187"></path><path d="M506.299602 541.653958h-20.986284a9.985409 9.985409 0 0 0-9.985409 9.985409v35.710532a9.985409 9.985409 0 0 0 9.985409 9.985409h21.155528a9.985409 9.985409 0 0 0 9.985409-9.985409v-36.387509a9.985409 9.985409 0 0 0-9.985409-9.985409z m55.68135 0h-20.986284a9.985409 9.985409 0 0 0-10.154654 9.985409v35.710532a9.985409 9.985409 0 0 0 9.98541 9.985409h21.155528a9.985409 9.985409 0 0 0 9.985409-9.985409v-36.387509a9.985409 9.985409 0 0 0-9.985409-9.985409z m123.886773 103.238977H361.426545a23.355703 23.355703 0 1 1 0-46.542162h11.508607V531.499304c-22.678726-12.185584-35.879776-29.110007-5.585059-44.341987a119.486423 119.486423 0 0 1 21.324772-7.785234v-42.480301c-20.309307-11.000875-32.156403-26.063611-4.908082-39.772393a149.442651 149.442651 0 0 1 38.587683-11.339363V348.715541c-15.23198-8.292967-24.201924-19.63233-3.723373-29.956228a104.423687 104.423687 0 0 1 25.21739-7.785234 152.319803 152.319803 0 0 0 67.69769-37.741463v-49.419314a12.185584 12.185584 0 1 1 24.371168 0v49.588558a152.319803 152.319803 0 0 0 67.69769 37.572219 104.254443 104.254443 0 0 1 25.21739 7.785234c20.478551 10.323898 11.508607 21.663261-3.723373 29.956228v37.233729a149.781139 149.781139 0 0 1 38.587683 11.339363c27.24832 13.539538 15.401225 28.771518-5.077326 39.772393v42.818789a119.824912 119.824912 0 0 1 21.324772 7.785235c30.294716 15.23198 16.924423 32.156403-5.585059 44.341987v66.005248h11.508607a23.355703 23.355703 0 1 1 0 46.542162z m0 0" fill="#39B242" p-id="10188"></path></svg>