<?xml version="1.0" standalone="no"?><!DOCTYPE svg PUBLIC "-//W3C//DTD SVG 1.1//EN" "http://www.w3.org/Graphics/SVG/1.1/DTD/svg11.dtd"><svg t="1748596328924" class="icon" viewBox="0 0 1024 1024" version="1.1" xmlns="http://www.w3.org/2000/svg" p-id="19980" xmlns:xlink="http://www.w3.org/1999/xlink" width="16" height="16"><path d="M1024 512c0 282.7776-229.2224 512-512 512S0 794.7776 0 512 229.2224 0 512 0s512 229.2224 512 512z" fill="#FF6D00" p-id="19981"></path><path d="M665.6 742.4a25.6 25.6 0 1 1 0 51.2H358.4a25.6 25.6 0 1 1 0-51.2h307.2zM512 256c67.008 0 124.0064 42.9184 144.9856 102.7584A102.4 102.4 0 0 1 691.2 559.9744V665.6a25.6 25.6 0 0 1-25.6 25.6H358.4a25.6 25.6 0 0 1-25.6-25.6v-105.6256a102.4 102.4 0 1 1 34.2144-201.216C388.0064 298.9184 444.992 256 512 256z" fill="#FFFFFF" p-id="19982"></path></svg>